<svg xmlns="http://www.w3.org/2000/svg" width="393" height="251" viewBox="0 0 393 251">
  <g id="Group_1" data-name="Group 1" transform="translate(-244 -863)">
    <rect id="Rectangle_4" data-name="Rectangle 4" width="393" height="251" transform="translate(244 863)" fill="#f0f0f0"/>
    <g id="Icon_ionic-ios-images" data-name="Icon ionic-ios-images" transform="translate(345.977 894.013)">
      <path id="Path_1" data-name="Path 1" d="M52.846,14.812a1.953,1.953,0,0,0-3.171-.288L11.826,64.852a1.927,1.927,0,0,0,1.318,3.171l66.349,5.766a1.959,1.959,0,0,0,1.853-2.924Z" transform="translate(44.254 56.306)" fill="#656565"/>
      <path id="Path_2" data-name="Path 2" d="M37.305,19.375a1.953,1.953,0,0,0-3.171-.288L23.92,29.424a1.927,1.927,0,0,0-.206,2.224L34.175,52.035a1.919,1.919,0,0,0,1.524.947l18.492,1.606a1.959,1.959,0,0,0,1.853-2.924Z" transform="translate(102.998 78.472)" fill="#656565"/>
      <path id="Path_3" data-name="Path 3" d="M34.825,31.934a9.741,9.741,0,1,0-9.761-11.573A9.816,9.816,0,0,0,34.825,31.934Z" transform="translate(109.968 49.563)" fill="#656565"/>
      <path id="Path_4" data-name="Path 4" d="M176.546,42.33l-27.1-2.348-2.512-27.594A11.125,11.125,0,0,0,134.785,2.3L12.424,13.336A11.171,11.171,0,0,0,2.293,25.444L13.33,147.557a11.125,11.125,0,0,0,12.15,10.09l6.466-.577-.618,6.878A11.137,11.137,0,0,0,41.5,176.016l122.443,10.667a11.171,11.171,0,0,0,12.108-10.131L186.76,54.4A11.221,11.221,0,0,0,176.546,42.33ZM25.15,112.921a2.835,2.835,0,0,1-3.048-2.512l-7.413-82.37A2.772,2.772,0,0,1,17.2,25.032L132.19,14.695a2.835,2.835,0,0,1,3.048,2.512l1.977,21.746-83.07-7.29A11.171,11.171,0,0,0,42.036,41.794L35.9,111.932ZM174.322,57.074l-7.207,82.37A2.8,2.8,0,0,1,164.108,142l-7.66-.659L49.079,131.989a2.8,2.8,0,0,1-2.553-3.006L48.09,110.9l5.642-64.29a2.8,2.8,0,0,1,3.006-2.553l81.546,7.125,12.232,1.071,21.251,1.853A2.689,2.689,0,0,1,174.322,57.074Z" transform="translate(0 0)" fill="#656565"/>
    </g>
  </g>
</svg>
